<svg width="51" height="51" viewBox="0 0 51 51" fill="none" xmlns="http://www.w3.org/2000/svg">
<circle cx="25.7623" cy="25.2118" r="25.0738" fill="white"/>
<path d="M23.1515 40.8829C25.5165 40.8829 27.495 39.1969 27.9495 36.9651H18.3535C18.808 39.1969 20.7865 40.8829 23.1515 40.8829Z" fill="#FD5B2F"/>
<path d="M33.0448 28.4716C33.0108 28.4716 32.9795 28.4769 32.9455 28.4769C27.1851 28.4769 22.4981 23.7899 22.4981 18.0294C22.4981 15.7663 23.2294 13.6755 24.457 11.9621V10.8468C24.457 10.1246 23.872 9.54089 23.1511 9.54089C22.4302 9.54089 21.8452 10.1246 21.8452 10.8468V12.2572C17.422 12.8945 14.0096 16.6987 14.0096 21.2942V24.9352C14.0096 27.5196 12.8773 29.9591 10.891 31.6385C10.383 32.0734 10.0918 32.7055 10.0918 33.3741C10.0918 34.6343 11.117 35.6595 12.3772 35.6595H33.925C35.1852 35.6595 36.2104 34.6343 36.2104 33.3741C36.2104 32.7055 35.9191 32.0734 35.3981 31.6281C34.369 30.757 33.575 29.6731 33.0448 28.4716Z" fill="#FD5B2F"/>
<path d="M32.9456 9.54077C28.2651 9.54077 24.457 13.3489 24.457 18.0293C24.457 22.7098 28.2651 26.5178 32.9456 26.5178C37.626 26.5178 41.4341 22.7098 41.4341 18.0293C41.4341 13.3489 37.626 9.54077 32.9456 9.54077ZM36.2104 19.3352H34.2515V21.2941C34.2515 22.015 33.6664 22.6001 32.9456 22.6001C32.2247 22.6001 31.6396 22.015 31.6396 21.2941V19.3352H29.6807C28.9599 19.3352 28.3748 18.7502 28.3748 18.0293C28.3748 17.3084 28.9599 16.7234 29.6807 16.7234H31.6396V14.7645C31.6396 14.0436 32.2247 13.4586 32.9456 13.4586C33.6664 13.4586 34.2515 14.0436 34.2515 14.7645V16.7234H36.2104C36.9313 16.7234 37.5163 17.3084 37.5163 18.0293C37.5163 18.7502 36.9313 19.3352 36.2104 19.3352Z" fill="#FD5B2F"/>
</svg>
