<svg width="114" height="114" viewBox="0 0 114 114" fill="none" xmlns="http://www.w3.org/2000/svg">
<rect x="0.583984" y="0.809082" width="112.832" height="112.832" rx="5.22371" fill="white"/>
<path d="M47.8057 11.8987V12.5882H45.5595V19.2119H44.8282V12.5882H42.582V11.8987H47.8057ZM52.1852 18.5537C51.6559 19.0761 51.0081 19.3373 50.242 19.3373C49.4759 19.3373 48.8246 19.0761 48.2883 18.5537C47.759 18.0244 47.4943 17.3732 47.4943 16.6001C47.4943 15.8269 47.759 15.1792 48.2883 14.6568C48.8246 14.1275 49.4759 13.8628 50.242 13.8628C51.0081 13.8628 51.6559 14.1275 52.1852 14.6568C52.7215 15.1792 52.9897 15.8269 52.9897 16.6001C52.9897 17.3732 52.7215 18.0244 52.1852 18.5537ZM48.7794 18.0731C49.1764 18.4701 49.6639 18.6686 50.242 18.6686C50.8201 18.6686 51.3076 18.4701 51.7046 18.0731C52.1016 17.6692 52.3001 17.1781 52.3001 16.6001C52.3001 16.022 52.1016 15.5344 51.7046 15.1374C51.3076 14.7335 50.8201 14.5315 50.242 14.5315C49.6639 14.5315 49.1764 14.7335 48.7794 15.1374C48.3824 15.5344 48.1839 16.022 48.1839 16.6001C48.1839 17.1781 48.3824 17.6692 48.7794 18.0731ZM58.6359 11.8987H59.3255V19.2119H58.6359V18.1881C58.1553 18.9542 57.4519 19.3373 56.5256 19.3373C55.7803 19.3373 55.143 19.0726 54.6137 18.5433C54.0913 18.0139 53.8301 17.3662 53.8301 16.6001C53.8301 15.8339 54.0913 15.1862 54.6137 14.6568C55.143 14.1275 55.7803 13.8628 56.5256 13.8628C57.4519 13.8628 58.1553 14.2459 58.6359 15.012V11.8987ZM55.1151 18.0731C55.5122 18.4701 55.9997 18.6686 56.5778 18.6686C57.1559 18.6686 57.6434 18.4701 58.0404 18.0731C58.4374 17.6692 58.6359 17.1781 58.6359 16.6001C58.6359 16.022 58.4374 15.5344 58.0404 15.1374C57.6434 14.7335 57.1559 14.5315 56.5778 14.5315C55.9997 14.5315 55.5122 14.7335 55.1151 15.1374C54.7181 15.5344 54.5196 16.022 54.5196 16.6001C54.5196 17.1781 54.7181 17.6692 55.1151 18.0731ZM65.2778 13.9882H65.9673V19.2119H65.2778V18.1881C64.7972 18.9542 64.0938 19.3373 63.1674 19.3373C62.4222 19.3373 61.7849 19.0726 61.2555 18.5433C60.7332 18.0139 60.472 17.3662 60.472 16.6001C60.472 15.8339 60.7332 15.1862 61.2555 14.6568C61.7849 14.1275 62.4222 13.8628 63.1674 13.8628C64.0938 13.8628 64.7972 14.2459 65.2778 15.012V13.9882ZM61.757 18.0731C62.154 18.4701 62.6416 18.6686 63.2197 18.6686C63.7977 18.6686 64.2853 18.4701 64.6823 18.0731C65.0793 17.6692 65.2778 17.1781 65.2778 16.6001C65.2778 16.022 65.0793 15.5344 64.6823 15.1374C64.2853 14.7335 63.7977 14.5315 63.2197 14.5315C62.6416 14.5315 62.154 14.7335 61.757 15.1374C61.36 15.5344 61.1615 16.022 61.1615 16.6001C61.1615 17.1781 61.36 17.6692 61.757 18.0731ZM71.1883 13.9882H71.9197L69.6839 19.6925C69.4819 20.2079 69.1929 20.6119 68.8168 20.9044C68.4476 21.2039 68.0332 21.3362 67.5735 21.3014V20.6537C68.2004 20.7233 68.6775 20.3611 69.0048 19.5671L69.1407 19.2433L66.8004 13.9882H67.5317L69.4959 18.3657L71.1883 13.9882Z" fill="#686C75"/>
<rect x="38.1953" y="36.3306" width="9.40268" height="9.40268" rx="1.04474" fill="#E9E9E9"/>
<rect x="38.1953" y="50.957" width="9.40268" height="9.40268" rx="1.04474" fill="#E9E9E9"/>
<rect x="38.1953" y="65.5835" width="9.40268" height="9.40268" rx="1.04474" fill="#E9E9E9"/>
<rect x="38.1953" y="80.2097" width="9.40268" height="9.40268" rx="1.04474" fill="#E9E9E9"/>
<rect x="38.1953" y="94.8362" width="9.40268" height="9.40268" rx="1.04474" fill="#E9E9E9"/>
<rect x="24.6143" y="50.957" width="9.40268" height="9.40268" rx="1.04474" fill="#FD5B2F"/>
<rect x="24.6143" y="65.5835" width="9.40268" height="9.40268" rx="1.04474" fill="#E9E9E9"/>
<rect x="24.6143" y="80.2097" width="9.40268" height="9.40268" rx="1.04474" fill="#E9E9E9"/>
<rect x="24.6143" y="94.8362" width="9.40268" height="9.40268" rx="1.04474" fill="#E9E9E9"/>
<rect x="11.0322" y="50.957" width="9.40268" height="9.40268" rx="1.04474" fill="#E9E9E9"/>
<rect x="11.0322" y="65.5835" width="9.40268" height="9.40268" rx="1.04474" fill="#E9E9E9"/>
<rect x="11.0322" y="80.2097" width="9.40268" height="9.40268" rx="1.04474" fill="#E9E9E9"/>
<rect x="11.0322" y="94.8362" width="9.40268" height="9.40268" rx="1.04474" fill="#FD5B2F"/>
<rect x="51.7773" y="36.3306" width="9.40268" height="9.40268" rx="1.04474" fill="#E9E9E9"/>
<rect x="51.7773" y="50.957" width="9.40268" height="9.40268" rx="1.04474" fill="#E9E9E9"/>
<rect x="51.7773" y="65.5835" width="9.40268" height="9.40268" rx="1.04474" fill="#E9E9E9"/>
<rect x="51.7773" y="80.2097" width="9.40268" height="9.40268" rx="1.04474" fill="#E9E9E9"/>
<rect x="51.7773" y="94.8362" width="9.40268" height="9.40268" rx="1.04474" fill="#E9E9E9"/>
<rect x="65.3584" y="36.3306" width="9.40268" height="9.40268" rx="1.04474" fill="#E9E9E9"/>
<rect x="65.3584" y="50.957" width="9.40268" height="9.40268" rx="1.04474" fill="#E9E9E9"/>
<rect x="65.3584" y="65.5835" width="9.40268" height="9.40268" rx="1.04474" fill="#E9E9E9"/>
<rect x="65.3584" y="80.2097" width="9.40268" height="9.40268" rx="1.04474" fill="#E9E9E9"/>
<rect x="78.9404" y="36.3306" width="9.40268" height="9.40268" rx="1.04474" fill="#E9E9E9"/>
<rect x="78.9404" y="50.957" width="9.40268" height="9.40268" rx="1.04474" fill="#E9E9E9"/>
<rect x="78.9404" y="65.5835" width="9.40268" height="9.40268" rx="1.04474" fill="#E9E9E9"/>
<rect x="78.9404" y="80.2097" width="9.40268" height="9.40268" rx="1.04474" fill="#FD5B2F"/>
<rect x="92.5215" y="36.3306" width="9.40268" height="9.40268" rx="1.04474" fill="#E9E9E9"/>
<rect x="92.5215" y="50.957" width="9.40268" height="9.40268" rx="1.04474" fill="#E9E9E9"/>
<rect x="92.5215" y="65.5835" width="9.40268" height="9.40268" rx="1.04474" fill="#E9E9E9"/>
<rect x="92.5215" y="80.2097" width="9.40268" height="9.40268" rx="1.04474" fill="#E9E9E9"/>
<line x1="102.969" y1="27.4501" x2="17.2999" y2="27.4501" stroke="#E9E9E9" stroke-width="1.04474"/>
</svg>
