<svg width="17" height="17" viewBox="0 0 17 17" fill="none" xmlns="http://www.w3.org/2000/svg">
<path fill-rule="evenodd" clip-rule="evenodd" d="M8.30668 16.3105C3.91754 16.3105 0.34668 12.7397 0.34668 8.35059C0.34668 3.96143 3.91754 0.390625 8.30668 0.390625C12.6958 0.390625 16.2666 3.96143 16.2666 8.35059C16.2666 12.7397 12.6958 16.3105 8.30668 16.3105ZM15.0182 9.44113C14.7856 9.3677 12.9137 8.8094 10.7832 9.15046C11.6725 11.5942 12.0344 13.5845 12.104 13.9981C13.6293 12.9667 14.7152 11.3329 15.0182 9.44113ZM10.963 14.6198C10.8618 14.0233 10.4671 11.9443 9.51253 9.46387C9.49758 9.46899 9.48264 9.47382 9.46769 9.479C5.63278 10.8153 4.25618 13.4748 4.13379 13.7249C5.28661 14.6238 6.73538 15.1602 8.30715 15.1602C9.24897 15.1602 10.1466 14.9675 10.963 14.6198ZM3.25666 12.9069C3.41066 12.6433 5.27665 9.55369 8.78318 8.4203C8.87179 8.39165 8.96112 8.36473 9.05112 8.33941C8.8804 7.95312 8.69451 7.56644 8.49985 7.18555C5.10448 8.20173 1.80973 8.15923 1.51229 8.15317C1.51018 8.22215 1.50879 8.29135 1.50879 8.36089C1.50879 10.1072 2.17078 11.7015 3.25666 12.9069ZM1.64941 6.9685C1.95347 6.97251 4.75461 6.98469 7.93498 6.14012C6.80843 4.13752 5.59344 2.45383 5.41422 2.20801C3.51207 3.1052 2.09024 4.8587 1.64941 6.9685ZM6.71289 1.75104C6.90083 2.00265 8.13571 3.68428 9.24982 5.73128C11.6675 4.82513 12.691 3.44947 12.8132 3.27529C11.6125 2.21004 10.0337 1.56201 8.30621 1.56201C7.75761 1.56201 7.22416 1.62782 6.71289 1.75104ZM13.57 4.06152C13.4266 4.25539 12.2873 5.71594 9.77344 6.74231C9.93166 7.06618 10.0833 7.39557 10.2245 7.72712C10.2745 7.84466 10.3233 7.9616 10.371 8.07803C12.6333 7.79354 14.8811 8.24942 15.1053 8.29688C15.0903 6.69208 14.5169 5.21851 13.57 4.06152Z" fill="#FD5B2F"/>
</svg>
