<svg width="14" height="14" viewBox="0 0 14 14" fill="none" xmlns="http://www.w3.org/2000/svg">
<path fill-rule="evenodd" clip-rule="evenodd" d="M10.5919 13.3206V8.31915C10.5919 7.37059 10.3332 6.35736 9.19061 6.35736C8.54387 6.35736 7.98336 6.81008 7.76778 7.41371C7.68154 7.65085 7.68154 7.88799 7.68154 8.12513V13.3206H4.9221C4.9221 10.3025 4.94365 7.30592 4.85742 4.28777H7.25038L7.37973 5.55971H7.42284C8.00492 4.61115 9.08282 4.09375 10.1823 4.09375C12.4675 4.09375 13.3729 5.92619 13.3729 7.99578V13.3206H10.5919ZM0.501953 13.321V4.28809H3.2614V13.321H0.501953ZM1.90248 0.385742C2.72169 0.385742 3.34688 0.946255 3.34688 1.78702C3.34688 2.64935 2.70013 3.1883 1.85936 3.1883C1.04015 3.1883 0.436523 2.60623 0.436523 1.78702C0.436523 0.946255 1.08327 0.385742 1.90248 0.385742Z" fill="#FD5B2F"/>
</svg>
