<svg width="14" height="10" viewBox="0 0 14 10" fill="none" xmlns="http://www.w3.org/2000/svg">
<path fill-rule="evenodd" clip-rule="evenodd" d="M10.571 1.77114C10.571 1.77114 10.571 1.67114 10.571 1.77114C10.0617 1.27112 9.45065 1.07112 8.83955 1.17112C9.45065 1.07112 9.7562 0.87111 9.85805 0.771107C9.85805 0.671104 9.85805 0.5711 9.7562 0.5711C9.45065 0.5711 9.1451 0.671104 8.9414 0.771107C9.24695 0.5711 9.3488 0.471097 9.3488 0.371094C9.04325 0.371094 8.7377 0.5711 8.3303 0.87111C8.43215 0.671104 8.534 0.5711 8.43215 0.471097C8.22845 0.5711 8.1266 0.671104 8.02475 0.87111C7.7192 1.17112 7.5155 1.37113 7.41365 1.67114C7.00626 2.37116 6.70071 2.97118 6.49701 3.6712H6.39516C6.19146 3.37119 5.88591 3.07118 5.47851 2.87118C5.07111 2.57117 4.56186 2.37116 3.95077 2.07115C3.33967 1.77114 2.72857 1.47113 2.01562 1.27112C2.01562 1.97115 2.32117 2.57117 3.03412 2.97118C2.83042 2.97118 2.52487 2.97118 2.32117 3.07118C2.32117 3.6712 2.83042 4.17122 3.74707 4.37122C3.44152 4.37122 3.13597 4.47123 2.83042 4.67123C3.13597 5.27125 3.64522 5.47126 4.46002 5.47126C4.35817 5.57126 4.15447 5.67127 4.15447 5.67127C4.05262 5.77127 3.95077 5.97128 4.05262 6.17128C4.25632 6.47129 4.46002 6.5713 4.96926 6.5713C4.25632 7.27132 3.33967 7.67133 2.32117 7.57133C1.71007 7.57133 0.997127 7.27132 0.28418 6.6713C0.997127 7.67133 2.01562 8.47136 3.23782 8.97138C4.66371 9.37139 6.08961 9.47139 7.41365 9.07138C8.7377 8.67137 9.9599 7.87134 10.8765 6.7713C11.2839 6.17128 11.5895 5.57126 11.6913 4.97124C12.4043 4.97124 12.9135 4.77124 13.2191 4.37122C13.0154 4.47123 12.5061 4.47123 11.7932 4.27122C12.5061 4.17122 13.0154 3.97121 13.1172 3.5712C12.608 3.77121 12.0987 3.77121 11.5895 3.5712C11.4876 2.87118 11.1821 2.27116 10.571 1.77114Z" fill="#FD5B2F"/>
</svg>
